<svg xmlns="http://www.w3.org/2000/svg" xml:space="preserve" style="fill-rule:evenodd;clip-rule:evenodd;stroke-linejoin:round;stroke-miterlimit:2" viewBox="0 0 330 328">
  <path id="numeral-1" d="M96.62 268.967V88.051l-21.791 2.977V65.191l45.857-6.595v210.371H96.62Z" style="fill:#000;fill-rule:nonzero"/>
  <path id="numeral-3" d="M192.142 268.967c-10.227 0-18-2.741-23.107-8.146-5.195-5.499-7.83-13.888-7.83-24.937v-8.907h24.066v16.951h35.225c6.623 0 11.072-4.572 11.072-11.378v-39.46c0-10.604-6.102-16.935-16.322-16.935h-30.412v-25.04h30.412c10.067 0 16.322-6.382 16.322-16.657V94.72c0-6.806-4.449-11.377-11.072-11.377h-35.225v16.951h-24.066V89.163c0-10.283 2.594-18.081 7.708-23.179 5.113-5.097 12.928-7.68 23.229-7.68h30.456c10.649 0 18.75 2.829 24.078 8.409 5.42 5.68 8.169 14.355 8.169 25.784v51.13c0 7.135-4.714 12.761-11.731 13.999l-4.809.849v10.322l4.809.848c7.017 1.238 11.731 6.863 11.731 13.997v51.13c0 11.43-2.749 20.105-8.169 25.785-5.328 5.58-13.429 8.41-24.078 8.41h-30.456Z" style="fill:#000;fill-rule:nonzero"/>
  <path id="star" d="m266.176 200.317-2.232 29.978-3.279 1.53v2.947c0 26.122-13.389 40.016-38.067 40.016h-30.456c-4.414 0-8.449-.469-12.099-1.386l-15.206 8.907-25.937-15.191-12.393.576v2.648c0 2.779-1.576 4.446-4.201 4.446H95.001c-2.888 0-4.201-1.667-4.201-4.446v-28.344l-25.07-11.703-2.231-29.978-18.207-23.914 11.954-27.58-5.008-29.642 23.403-18.862 1.207-3.692-2.326.317a6.9 6.9 0 0 1-1.109.094c-2.753 0-4.404-1.892-4.404-5.096V65.266c0-3.613 1.576-5.557 4.988-5.836l48.309-6.947c1.798 0 3.103.783 3.747 2.169l9.964-9.69 28.82 8.542 28.819-8.542 7.735 7.521h21.207c24.678 0 38.067 13.894 38.067 40.015v13.167l16.771 13.516-5.008 29.642 11.955 27.58-18.207 23.914Zm47.015-57.107 6.905-40.87-32.27-26.009-12.879-39.399-40.66-8.035L204.574 0l-39.737 11.779L125.099 0 95.387 28.897l-40.661 8.035-12.879 39.399L9.578 102.34l6.905 40.87L0 181.239l25.105 32.975 3.076 41.334 37.557 17.534L87.67 308.25l41.403-1.927 35.764 20.948 35.764-20.948 41.403 1.927 21.932-35.168 37.556-17.534 3.078-41.334 25.104-32.975-16.483-38.029Z" style="fill:#000;fill-rule:nonzero"/>
</svg>
