<svg xmlns="http://www.w3.org/2000/svg" xml:space="preserve" style="fill-rule:evenodd;clip-rule:evenodd;stroke-linejoin:round;stroke-miterlimit:2" viewBox="0 0 330 328">
  <path id="letter-t" d="M99.097 272.944V85.782H66.333V60.439h87.644v25.342l-32.764.001v187.162H99.097Z" style="fill:#000;fill-rule:nonzero"/>
  <path id="letter-g" d="M200.654 272.944c-9.874 0-17.365-2.805-22.265-8.336-5.082-5.736-7.658-14.547-7.658-26.189V94.964c0-11.643 2.576-20.454 7.658-26.19 4.9-5.531 12.391-8.335 22.265-8.335h32.764c19.855 0 29.924 11.615 29.924 34.525v27.801h-21.125v-19.956c0-10.503-6.034-17.027-15.749-17.027h-17.871c-9.861 0-15.75 6.365-15.75 17.027v127.763c0 10.663 5.889 17.028 15.75 17.028h17.871c9.862 0 15.749-6.365 15.749-17.028v-43.364h-16.878v-25.344h38.003v76.555c0 22.909-10.069 34.525-29.924 34.525h-32.764Z" style="fill:#000;fill-rule:nonzero"/>
  <path id="star" d="M269.162 238.419c0 26.337-12.659 40.346-35.744 40.346h-32.764c-8.329 0-15.259-1.795-20.736-5.289l-15.081 8.834-25.937-15.193-11.867.552v6.613c0 3.081-1.241 4.483-3.972 4.483H97.248c-2.482 0-3.972-1.402-3.972-4.483v-30.777l-.309-.495-27.238-12.716-2.23-29.977-18.207-23.914 11.954-27.581-5.008-29.64 23.403-18.863 2.849-8.716H64.483c-2.482 0-3.971-1.682-3.971-4.484V59.101c0-2.801 1.489-4.483 3.971-4.483h61.605l9.929-9.656 28.82 8.543 28.819-8.543 9.93 9.656h29.832c23.085 0 35.744 14.009 35.744 40.346v17.549l8.273 6.669-5.007 29.64 11.955 27.581-15.221 19.993v42.023Zm44.029-95.209 6.905-40.87-32.27-26.009-12.879-39.398-40.66-8.035L204.575 0l-39.738 11.779L125.099 0 95.387 28.898l-40.662 8.035-12.877 39.398-32.27 26.009 6.905 40.87L0 181.239l25.105 32.976 3.076 41.334 37.557 17.533L87.67 308.25l41.403-1.927 35.764 20.949 35.764-20.949 41.403 1.927 21.931-35.168 37.557-17.533 3.077-41.334 25.105-32.976-16.483-38.029Z" style="fill:#000;fill-rule:nonzero"/>
</svg>
